<svg width="95" height="51" viewBox="0 0 95 51" fill="none" xmlns="http://www.w3.org/2000/svg">
<path d="M91.2305 36.5334C90.266 36.5334 89.3025 36.2735 88.5678 35.7499L47.495 6.47576L6.42221 35.745C4.95272 36.7921 2.57164 36.7921 1.10212 35.745C-0.367374 34.6978 -0.367374 33.001 1.10212 31.9538L44.84 0.785392C46.3094 -0.261797 48.6905 -0.261797 50.16 0.785392L93.8979 31.9538C95.3674 33.001 95.3674 34.6978 93.8979 35.745C93.1622 36.2692 92.1977 36.5329 91.2333 36.5329L91.2305 36.5334Z" fill="#2A1B12"/>
<path d="M75.0846 23.9065C72.9662 23.9065 71.2433 22.705 71.2433 21.2276L71.2424 10.5785C71.2424 9.1011 72.9653 7.89957 75.0837 7.89957C77.2021 7.89957 78.925 9.10112 78.925 10.5785V21.2283C78.926 22.7057 77.2086 23.9065 75.0846 23.9065Z" fill="#2A1B12"/>
<path d="M16.656 44.0457V29.5257C16.656 28.6617 17.112 28.2057 17.976 28.2057H22.752C28.152 28.2057 31.608 31.3497 31.608 36.7497C31.608 42.1497 28.152 45.3657 22.752 45.3657H17.976C17.112 45.3657 16.656 44.9097 16.656 44.0457ZM20.856 41.7657H22.584C25.488 41.7657 27.264 40.0377 27.264 36.7497C27.264 33.4857 25.416 31.8057 22.584 31.8057H20.856V41.7657ZM34.1541 44.4257L31.8741 36.3057C31.6741 35.5457 32.0341 35.0657 32.8141 35.0657H34.1741C34.8541 35.0657 35.2341 35.3857 35.3741 36.0457L36.4541 41.1457C36.5741 41.7057 36.5741 42.2257 36.5741 42.2257H36.6141C36.6141 42.2257 36.6541 41.7057 36.7941 41.1457L37.9941 36.0257C38.1341 35.3857 38.5341 35.0657 39.1941 35.0657H40.1941C40.8541 35.0657 41.2541 35.3857 41.3941 36.0257L42.5941 41.1457C42.7341 41.7057 42.7541 42.2257 42.7541 42.2257H42.7941C42.7941 42.2257 42.8141 41.7057 42.9341 41.1457L44.0141 36.0457C44.1541 35.3857 44.5341 35.0657 45.2141 35.0657H46.5341C47.3141 35.0657 47.6741 35.5457 47.4741 36.3057L45.1941 44.4257C45.0141 45.0657 44.6141 45.3657 43.9741 45.3657H42.0541C41.3941 45.3657 40.9941 45.0457 40.8341 44.4057L39.9141 40.6057C39.7741 40.0457 39.7141 39.5057 39.7141 39.5057H39.6741C39.6741 39.5057 39.6141 40.0457 39.4741 40.6057L38.5541 44.4057C38.3941 45.0457 37.9941 45.3657 37.3341 45.3657H35.3741C34.7341 45.3657 34.3341 45.0657 34.1541 44.4257ZM47.3831 40.2057C47.3831 37.1857 49.4231 34.8257 52.7431 34.8257C55.8031 34.8257 57.5031 36.9857 57.5031 39.7457C57.5031 40.2857 57.0231 40.8857 56.3431 40.8857H50.9231C51.1831 42.1457 52.2231 42.7257 53.3231 42.7257C54.0231 42.7257 54.6831 42.5057 55.2031 42.2457C55.8631 41.9457 56.3431 42.0257 56.6831 42.6657L56.9631 43.1857C57.2831 43.8057 57.1831 44.3457 56.5831 44.6857C55.8431 45.1057 54.6231 45.6057 53.0431 45.6057C49.3631 45.6057 47.3831 42.9457 47.3831 40.2057ZM51.0031 38.9057H54.0831C54.0831 38.0657 53.5431 37.3657 52.6631 37.3657C51.6631 37.3657 51.1831 38.0857 51.0031 38.9057ZM58.8802 41.5657V32.1657C58.8802 31.4457 59.2602 31.0657 59.9802 31.0657H61.2402C61.9602 31.0657 62.3402 31.4457 62.3402 32.1657V41.4057C62.3402 42.1857 62.6002 42.3857 62.9202 42.4257C63.4002 42.4857 63.7202 42.7657 63.7202 43.3657V44.3457C63.7202 45.0257 63.4002 45.4657 62.6002 45.4657C60.8202 45.4657 58.8802 45.0257 58.8802 41.5657ZM65.013 41.5657V32.1657C65.013 31.4457 65.393 31.0657 66.113 31.0657H67.373C68.093 31.0657 68.473 31.4457 68.473 32.1657V41.4057C68.473 42.1857 68.733 42.3857 69.053 42.4257C69.533 42.4857 69.853 42.7657 69.853 43.3657V44.3457C69.853 45.0257 69.533 45.4657 68.733 45.4657C66.953 45.4657 65.013 45.0257 65.013 41.5657ZM70.5277 40.2457C70.5277 37.0057 73.1277 34.8257 76.3477 34.8257C79.6077 34.8257 82.2077 37.0057 82.2077 40.2457C82.2077 43.4657 79.6077 45.6057 76.3677 45.6057C73.1277 45.6057 70.5277 43.4657 70.5277 40.2457ZM74.0277 40.2457C74.0277 41.7857 75.1077 42.7257 76.3677 42.7257C77.6277 42.7257 78.7077 41.7857 78.7077 40.2457C78.7077 38.6857 77.6277 37.7057 76.3677 37.7057C75.1077 37.7057 74.0277 38.6857 74.0277 40.2457Z" fill="#2A1B12"/>
</svg>
